<svg viewBox="0 0 19 19" fill="none" xmlns="http://www.w3.org/2000/svg"><path d="M9.313 4.705a4.717 4.717 0 00-4.717 4.717 4.691 4.691 0 004.716 4.717 4.717 4.717 0 004.717-4.717c0-2.584-2.133-4.717-4.716-4.717zm0 7.793a3.072 3.072 0 01-3.077-3.076c0-1.682 1.354-3.035 3.077-3.035a3.028 3.028 0 013.035 3.035c0 1.723-1.354 3.076-3.036 3.076zM15.3 4.541c0-.615-.492-1.107-1.108-1.107-.615 0-1.107.492-1.107 1.107s.492 1.107 1.107 1.107c.616 0 1.108-.492 1.108-1.107zm3.117 1.107c-.082-1.476-.41-2.789-1.477-3.855C15.875.727 14.563.398 13.086.316c-1.518-.082-6.07-.082-7.588 0-1.477.082-2.748.41-3.855 1.477C.576 2.859.248 4.172.166 5.648c-.082 1.518-.082 6.07 0 7.588.082 1.477.41 2.748 1.477 3.856 1.107 1.066 2.378 1.394 3.855 1.476 1.518.082 6.07.082 7.588 0 1.476-.082 2.789-.41 3.855-1.476 1.067-1.108 1.395-2.38 1.477-3.856.082-1.517.082-6.07 0-7.588zm-1.969 9.188c-.287.82-.943 1.435-1.722 1.764-1.23.492-4.102.369-5.415.369-1.353 0-4.224.123-5.414-.37a3.11 3.11 0 01-1.763-1.763c-.492-1.19-.37-4.06-.37-5.414 0-1.313-.122-4.184.37-5.414a3.164 3.164 0 011.763-1.723c1.19-.492 4.061-.369 5.415-.369 1.312 0 4.183-.123 5.414.37.779.286 1.394.943 1.722 1.722.492 1.23.37 4.101.37 5.414 0 1.353.122 4.224-.37 5.414z" fill="#fff"/></svg>