<svg viewBox="0 0 19 22" fill="none" xmlns="http://www.w3.org/2000/svg"><path d="M18.875 9.535V5.967h-.041a4.787 4.787 0 01-2.707-.82 4.988 4.988 0 01-2.215-3.282c-.082-.287-.082-.574-.082-.861V.922h-3.61v14.355c0 1.682-1.394 3.077-3.075 3.077-1.682 0-3.077-1.395-3.077-3.077 0-1.681 1.395-3.076 3.077-3.076.328 0 .615.041.943.164V8.674c-.328-.041-.615-.082-.943-.082C3.453 8.592.5 11.586.5 15.277a6.617 6.617 0 006.645 6.645c3.69 0 6.685-2.953 6.685-6.645V7.936c1.395 1.025 3.117 1.6 5.004 1.6h.041z" fill="#fff"/></svg>