<svg viewBox="0 0 22 18" fill="none" xmlns="http://www.w3.org/2000/svg"><path d="M18.951 5.156c.82-.615 1.559-1.353 2.133-2.215-.738.329-1.6.575-2.461.657a4.208 4.208 0 001.887-2.38 9.096 9.096 0 01-2.707 1.067A4.307 4.307 0 0014.644.932a4.306 4.306 0 00-4.306 4.306c0 .328.04.657.123.985a12.495 12.495 0 01-8.9-4.512c-.37.615-.575 1.353-.575 2.174 0 1.476.739 2.789 1.928 3.568-.697-.04-1.394-.205-1.969-.533v.04a4.312 4.312 0 003.446 4.225c-.329.083-.739.165-1.108.165-.287 0-.533-.041-.82-.082.533 1.722 2.133 2.953 4.02 2.994a8.658 8.658 0 01-5.333 1.845c-.369 0-.697-.04-1.025-.082 1.887 1.23 4.143 1.928 6.604 1.928 7.916 0 12.222-6.521 12.222-12.223v-.574z" fill="#fff"/></svg>