<svg width="151" height="141" fill="none" xmlns="http://www.w3.org/2000/svg"><path d="M.698 100.113c.01.055.027.109.05.16l.03.1 11.408 19.757.03.03c.02.03.04.06.07.1a.68.68 0 00.13.11c.03.02.05.05.08.07a.057.057 0 00.04.01c.113.063.24.098.37.1h45.133l11.168 19.337.03.03c.02.03.04.06.07.1a.68.68 0 00.13.11c.03.02.05.05.08.07a.057.057 0 00.04.01c.114.064.24.098.37.1h68.44a.816.816 0 00.38-.1l.09-.06a.879.879 0 00.22-.21c.01-.02.04-.03.05-.05l11.409-19.757c.01-.02.009-.03.02-.05a.435.435 0 00.04-.1c.01-.04.02-.07.029-.11a.37.37 0 00.01-.11c0-.02.011-.03.011-.05 0-.02-.011-.03-.011-.05 0-.04-.01-.07-.01-.11 0-.04-.019-.07-.029-.11a1.225 1.225 0 00-.04-.1c-.011-.02-.01-.03-.02-.05l-22.567-39.084 11.158-19.337c.01-.02.01-.03.02-.05a.404.404 0 00.04-.1l.03-.11a.407.407 0 00.01-.11c0-.02.01-.03.01-.05 0-.02-.01-.03-.01-.05 0-.04-.01-.07-.01-.11 0-.04-.02-.07-.03-.11a.914.914 0 00-.04-.1c-.01-.02-.01-.03-.02-.05L104.902.748c-.02-.03-.05-.05-.07-.08a1.486 1.486 0 00-.11-.13.992.992 0 00-.13-.09.592.592 0 00-.14-.07.944.944 0 00-.18-.04c-.03 0-.06-.02-.1-.02H81.356c-.02 0-.03.01-.05.01-.04 0-.07.01-.11.01l-.12.03c-.03.01-.07.03-.1.04-.03.01-.03.01-.05.02a.137.137 0 01-.04.03.547.547 0 00-.09.07.59.59 0 00-.08.08c-.02.03-.05.06-.07.09a.137.137 0 00-.03.04L58.049 39.832H35.732c-.02 0-.03.01-.05.01-.04 0-.07.01-.11.01-.04 0-.08.02-.11.03a1.052 1.052 0 00-.1.04c-.02.01-.03.01-.05.02-.02.01-.02.02-.04.03a.554.554 0 00-.09.07.598.598 0 00-.08.08c-.02.03-.05.06-.07.09a.137.137 0 00-.03.04L.787 99.533a.38.38 0 00-.03.1.982.982 0 00-.05.16.468.468 0 00-.02.16.858.858 0 00.01.16zM103.682 2.017L136.928 59.6h-20.857L82.816 2.018h20.866zm11.409 97.096H94.224L116.06 61.28h20.867L115.09 99.114zM81.356 2.857L114.6 60.44 92.764 98.273 82.336 80.196l11.168-19.337c.01-.02.01-.03.02-.05a.42.42 0 00.04-.1l.03-.11a.415.415 0 00.01-.11c0-.02.01-.03.01-.05 0-.02-.01-.03-.01-.05 0-.04-.01-.07-.01-.11 0-.04-.02-.07-.03-.11a1.052 1.052 0 00-.04-.1c-.01-.02-.01-.03-.02-.05L82.086 40.262c-.02-.03-.05-.05-.07-.08a1.5 1.5 0 00-.11-.13 1.02 1.02 0 00-.27-.16.51.51 0 00-.17-.03c-.03 0-.07-.02-.1-.02H60.009L81.356 2.857zM58.549 41.532h22.327l10.438 18.067H47.631L37.192 41.532H58.55zm-22.817.84l10.429 18.067-33.245 57.581L2.487 99.953l33.245-57.581zM14.386 118.86L47.63 61.279h43.683L80.876 79.356H58.549c-.02 0-.03.01-.05.01-.04 0-.07.01-.11.01l-.12.03c-.03.01-.07.03-.1.04-.03.01-.03.01-.05.02a.136.136 0 01-.04.03.55.55 0 00-.09.07.605.605 0 00-.08.08c-.02.03-.05.06-.07.09-.01.01-.03.02-.03.04L46.401 99.533a.383.383 0 00-.03.1.983.983 0 00-.05.16.807.807 0 00-.01.16.863.863 0 00.01.16c.01.055.027.109.05.16l.03.1 10.678 18.487H14.385zm123.521 19.757h-66.49l10.429-18.067h66.49l-10.429 18.067zm-67.95-.839L48.121 99.953l10.438-18.077L80.396 119.7l-10.439 18.078zm78.379-18.918h-66.49L60.009 81.036h20.867l11.168 19.337.03.03a.596.596 0 00.2.21c.03.02.05.05.08.07a.057.057 0 00.04.01c.113.063.24.098.37.1h22.817a.831.831 0 00.38-.1l.09-.06a.914.914 0 00.22-.21c.01-.02.04-.03.05-.05l10.678-18.497 21.337 36.984z" fill="#fff"/></svg>