<svg width="140" height="123" fill="none" xmlns="http://www.w3.org/2000/svg"><path d="M.02 108.783a.882.882 0 00.05.15.318.318 0 00.03.09l7.278 12.617.03.03c.02.033.043.063.07.09.04.04.08.07.12.11.03.02.04.05.07.06a.057.057 0 00.04.01.807.807 0 00.35.09H131.89a.808.808 0 00.35-.09c.03-.02.05-.04.08-.06a.626.626 0 00.2-.2c.01-.02.03-.03.05-.049l7.288-12.618c.01-.01.01-.03.02-.04a.3.3 0 00.04-.1l.03-.1a.374.374 0 00.01-.1c0-.02.01-.03.01-.05 0-.02-.01-.03-.01-.05 0-.02-.01-.07-.01-.1s-.02-.07-.03-.1a.719.719 0 00-.04-.1c-.01-.01-.01-.03-.02-.04L77.947.985a.428.428 0 00-.06-.07.628.628 0 00-.11-.12 1.551 1.551 0 00-.25-.15.759.759 0 00-.16-.03c-.03 0-.06-.02-.1-.02H62.702c-.02 0-.03.01-.05.01-.02 0-.07.01-.1.01l-.11.03a.694.694 0 00-.1.04.06.06 0 01-.04.01.137.137 0 01-.04.03.554.554 0 00-.08.06.602.602 0 00-.08.08c-.02.03-.04.05-.06.08a.14.14 0 00-.03.04L.09 108.243a.318.318 0 00-.03.09.91.91 0 00-.05.15.76.76 0 00-.01.15c.01.05.01.1.02.15zM76.817 2.164l61.012 105.679H31.281l6.378-11.038h79.686a.68.68 0 00.35-.1c.01-.01.03 0 .04-.01a.408.408 0 00.07-.06 1.1 1.1 0 00.12-.11.824.824 0 00.08-.12.301.301 0 00.06-.13.4.4 0 00.03-.16c0-.03.02-.06.02-.1 0-.02-.01-.03-.01-.05a.767.767 0 00-.03-.15.88.88 0 00-.05-.15c-.01-.01-.01-.03-.02-.04L64.051 2.166h12.766zm54.634 118.297H9.427l53.275-92.282 6.378 11.038-39.849 69.016a.06.06 0 00-.01.04.91.91 0 00-.05.15.797.797 0 00-.03.15c0 .02-.01.03-.01.05 0 .02.02.06.02.1a.894.894 0 00.03.16c.02.05.04.09.06.13.025.042.051.082.08.12.04.04.08.07.12.11.03.02.04.05.07.06.01.01.03 0 .04.01a.827.827 0 00.35.1H137.81l-6.358 11.048zM101.41 95.236H38.559l31.43-54.44 31.421 54.44zM62.702 2.954l53.274 92.282H103.23L63.391 26.219a.139.139 0 01-.03-.04c-.03-.04-.07-.08-.1-.12a.58.58 0 00-.12-.1.136.136 0 00-.04-.03.315.315 0 00-.09-.03.873.873 0 00-.15-.05c-.1-.013-.2-.013-.3 0a.872.872 0 00-.15.05.315.315 0 00-.09.03.14.14 0 01-.04.03c-.04.03-.08.07-.12.1a.377.377 0 00-.1.12.14.14 0 00-.03.04L8.079 119.681 1.7 108.643 62.702 2.954z" fill="#fff"/></svg>