<svg width="122" height="141" fill="none" xmlns="http://www.w3.org/2000/svg"><path d="M121.922 35.323l-20.696-11.948-19.207 11.088V12.277L61.313.329 40.616 12.277v22.176L21.41 23.365.703 35.323V59.23L19.91 70.317.703 81.406v23.906L21.4 117.26l19.206-11.088v22.176l20.697 11.948 20.696-11.948v-22.176l19.207 11.088 20.716-11.948V81.406l-19.207-11.089 19.207-11.088V35.323zm-20.696-10.228l18.466 10.658L82.139 57.5l-.12-21.317 19.207-11.088zM80.529 37.043l.12 21.326-18.587 10.769V24.665L80.53 14.006v23.037zM42.106 14.006l18.457 10.659v44.473L42.106 58.449V14.006zM21.399 25.095l19.207 11.088v21.386L2.943 35.754l18.456-10.658zM2.194 58.369V37.053l37.673 21.816L21.41 69.458 2.193 58.369zm0 46.083V83.135L20.65 93.794v21.316L2.193 104.452zm.75-22.616L21.78 70.967 41.366 59.73l18.457 10.689L21.41 92.494 2.943 81.836zm57.62 56.311l-18.457-10.659v-22.176l18.457-10.658v43.493zm-18.457-34.555l-1.12.65L22.15 115.12V93.804l38.414-22.077v21.207l-18.457 10.658zm19.207-80.217L42.856 12.717 61.313 2.058l18.456 10.659-18.456 10.658zM80.52 127.488l-18.457 10.659V94.654l18.457 10.658v22.176zm19.957-12.378L81.64 104.232l-1.12-.65-18.457-10.658V71.717l38.414 22.077v21.316zm19.956-10.658l-18.457 10.658V93.614l18.457-10.489v21.327zm-.76-22.616l-18.606 10.578-38.264-21.987L81.39 59.66l18.347 10.658.62.36.37.22.12.07 18.826 10.869zm.76-23.467l-19.206 11.089L82.89 58.799l37.553-21.746v21.316h-.01z" fill="#fff"/></svg>