<svg width="140" height="143" fill="none" xmlns="http://www.w3.org/2000/svg"><path clip-rule="evenodd" d="M138.249 50.134a70.04 70.04 0 00-110.566-33.52A70.038 70.038 0 10120.07 121.71h.03l.569-.57a14.722 14.722 0 00-20.818-20.819v-.01a40.555 40.555 0 01-62.925-50.203 40.555 40.555 0 0161.225-9.334l1.97 1.98a4.968 4.968 0 01-.024 6.996 4.963 4.963 0 01-6.996.024l-2.73-2.74-.1.1a.81.81 0 00-.21-.32 30.741 30.741 0 101.7 47.627 4.974 4.974 0 00-.04-6.68c-1.97-2.13-5.34-1.57-7.01-.2a20.919 20.919 0 11-.56-32.898l.03-.02 1.77 1.77a14.722 14.722 0 0020.819-20.819l-.22-.22a.89.89 0 00-.22-.42A50.365 50.365 0 0029.861 99.67a50.366 50.366 0 0077.259 7.292c.015-.035.032-.068.05-.1a4.952 4.952 0 016.678-.075 4.943 4.943 0 01.672 6.644 60.158 60.158 0 1113.599-62.507c.73 2.03 2.44 4.99 5.93 4.77a4.37 4.37 0 004.2-5.56z" stroke="#fff" stroke-width="2" stroke-miterlimit="10" stroke-linecap="round" stroke-linejoin="round"/></svg>