<svg width="141" height="123" fill="none" xmlns="http://www.w3.org/2000/svg"><path d="M116.898 101.962c.01-.01.01-.03.02-.04a.28.28 0 00.04-.1l.03-.1a.337.337 0 00.01-.1c0-.02.01-.03.01-.05 0-.02-.01-.03-.01-.05 0-.02-.01-.07-.01-.1s-.02-.07-.03-.1a.719.719 0 00-.04-.1c-.01-.01-.01-.03-.02-.04l-11.216-19.425h22.422a.821.821 0 00.35-.09c.03-.02.05-.04.08-.06a.636.636 0 00.2-.2c.01-.02.03-.03.05-.05l11.356-19.665c.01-.01.01-.03.02-.04a.302.302 0 00.04-.1l.03-.1a.336.336 0 00.01-.1c0-.02.01-.03.01-.05 0-.02-.01-.03-.01-.05 0-.02-.01-.07-.01-.1s-.02-.07-.03-.1a.713.713 0 00-.04-.1c-.01-.01-.01-.03-.02-.04l-11.356-19.664a.435.435 0 00-.06-.07.596.596 0 00-.11-.12 1.475 1.475 0 00-.13-.09.509.509 0 00-.13-.06.452.452 0 00-.16-.03c-.03 0-.06-.02-.09-.02h-22.422l11.216-19.425c.01-.01.01-.03.02-.04a.281.281 0 00.04-.1l.03-.1a.336.336 0 00.01-.1c0-.02.01-.03.01-.05 0-.02-.01-.03-.01-.05 0-.02-.01-.07-.01-.1s-.02-.07-.03-.1a.713.713 0 00-.04-.1c-.01-.01-.01-.03-.02-.04L105.552.988a.388.388 0 00-.06-.07.959.959 0 00-.1-.12 1.36 1.36 0 00-.13-.09.51.51 0 00-.13-.06.452.452 0 00-.16-.03c-.03 0-.06-.02-.09-.02H82.18c-.02 0-.03.01-.05.01-.02 0-.07.01-.1.01l-.11.03a.352.352 0 00-.09.04.06.06 0 01-.04.01l-.03.03a.55.55 0 00-.08.06.596.596 0 00-.08.08c-.02.03-.04.05-.06.08a.14.14 0 00-.03.04L70.296 20.413 59.079.988a.438.438 0 00-.06-.07 1.204 1.204 0 00-.11-.12.834.834 0 00-.12-.08.518.518 0 00-.13-.06.415.415 0 00-.16-.03c-.03 0-.06-.02-.09-.02H35.707c-.02 0-.03.01-.05.01-.02 0-.07.01-.1.01l-.11.03a.352.352 0 00-.09.04.06.06 0 01-.04.01.138.138 0 01-.04.03.55.55 0 00-.08.06.596.596 0 00-.08.08c-.02.03-.04.05-.06.08a.14.14 0 00-.03.04L23.681 20.663a.317.317 0 00-.03.09.876.876 0 00-.05.15c-.013.1-.013.2 0 .3a.88.88 0 00.05.15.318.318 0 00.03.09l11.216 19.425H12.475c-.02 0-.03.01-.05.01-.02 0-.07.01-.1.01l-.11.03a.35.35 0 00-.09.04c-.01.01-.03.01-.04.02l-.03.03a.55.55 0 00-.08.06.605.605 0 00-.08.08c-.02.03-.04.05-.06.08a.139.139 0 00-.03.04L.45 60.933a.317.317 0 00-.03.09.88.88 0 00-.05.15c-.013.099-.013.2 0 .3a.88.88 0 00.05.15.32.32 0 00.03.09l11.356 19.664.03.03c.02.033.044.063.07.09.04.04.08.07.12.11.03.02.04.05.07.06a.06.06 0 00.04.01.823.823 0 00.35.09h22.422l-11.206 19.425a.326.326 0 00-.03.09.902.902 0 00-.05.15c-.013.1-.013.201 0 .3a.872.872 0 00.05.15.315.315 0 00.03.09l11.346 19.665.03.03c.02.032.044.062.07.09.04.04.08.07.12.11.03.02.04.05.07.06a.062.062 0 00.04.01.835.835 0 00.35.09H58.43a.836.836 0 00.35-.09c.03-.02.05-.04.08-.06a.636.636 0 00.2-.2c.01-.02.03-.03.05-.05l11.216-19.425 11.216 19.425.03.03c.02.032.043.062.07.09.04.04.08.07.12.11.03.02.04.05.07.06a.063.063 0 00.04.01.835.835 0 00.35.09h22.702a.833.833 0 00.349-.09c.03-.02.05-.04.08-.06a.636.636 0 00.2-.2c.01-.02.03-.03.05-.05l11.296-19.655zm-12.485 18.485H83.52l10.446-18.095h20.893l-10.446 18.095zm-46.484 0H37.036l22.343-38.69H80.27l-22.342 38.69zm-44.134-40.27L24.24 62.083h44.674L58.47 80.178H13.795zm-1.36-36.97l10.446 18.096-10.446 18.095L1.99 61.303l10.446-18.096zM25.23 21.033L35.677 2.937l22.342 38.69-10.446 18.096-22.343-38.69zM82.17 2.947l10.447 18.096-22.332 38.69-10.447-18.095 22.333-38.69zm22.243-.79l10.446 18.096H93.966L83.52 2.158h20.893zm23.251 40.27l10.447 18.096H93.437L82.99 42.427h44.674zm-46.043.78l9.986 17.306H71.624l9.997-17.306zM68.915 60.513H48.932l9.987-17.306 9.996 17.306zm1.36 2.36l9.986 17.305H60.278l9.997-17.306zm1.36-.78h20.882l22.332 38.689H93.956l-22.322-38.69zm22.701 0h43.765l-10.447 18.095h-22.881L94.336 62.092zM82.99 40.847l10.986-19.025h20.893l-10.986 19.025H82.99zm-24.071-.78L37.036 2.158H57.93l11.446 19.814L58.92 40.068zM46.203 60.513H24.231L13.785 42.417h21.972l10.446 18.096zM57.56 81.757l-21.882 37.911-10.447-18.096 11.437-19.815H57.56zm24.062.78l10.986 19.025-10.447 18.095-10.986-19.035 10.447-18.085z" fill="#fff"/></svg>